<svg width="124" height="24" viewBox="0 0 124 24" fill="none" xmlns="http://www.w3.org/2000/svg">
<path d="M13.1475 2.58374L9.82678 21.4164" stroke="#3C2769" stroke-width="1.56345" stroke-linecap="square"/>
<path d="M13.5117 6.43872L9.46356 17.561" stroke="#3C2769" stroke-width="1.56345" stroke-linecap="square"/>
<path d="M12.998 9.38306L9.97638 14.6167" stroke="#3C2769" stroke-width="1.56345" stroke-linecap="square"/>
<path d="M17.9473 4.30078L5.02631 19.6994" stroke="#3C2769" stroke-width="1.56345" stroke-linecap="square"/>
<path d="M13.377 10.4143L9.59729 13.5858" stroke="#3C2769" stroke-width="1.56345" stroke-linecap="square"/>
<path d="M15.2666 10.6245L7.70758 13.3757" stroke="#3C2769" stroke-width="1.56345" stroke-linecap="square"/>
<path d="M21.6875 12H1.28699" stroke="#3C2769" stroke-width="1.56345" stroke-linecap="square"/>
<path d="M19.7891 13.4636L3.18604 10.5361" stroke="#3C2769" stroke-width="1.56345" stroke-linecap="square"/>
<path d="M20.0693 15.1237L2.90509 8.87646" stroke="#3C2769" stroke-width="1.56345" stroke-linecap="square"/>
<path d="M14.3857 13.6734L8.58905 10.3267" stroke="#3C2769" stroke-width="1.56345" stroke-linecap="square"/>
<path d="M18.1162 17.5627L4.85736 6.43726" stroke="#3C2769" stroke-width="1.56345" stroke-linecap="square"/>
<path d="M14.4482 15.5287L8.52625 8.47119" stroke="#3C2769" stroke-width="1.56345" stroke-linecap="square"/>
<path d="M14.1973 19.447L8.77618 4.55273" stroke="#3C2769" stroke-width="1.56345" stroke-linecap="square"/>
<path d="M11.8262 13.9261L11.147 10.074" stroke="#3C2769" stroke-width="1.56345" stroke-linecap="square"/>
<path d="M11.4873 16.1819V7.81787" stroke="#3C2769" stroke-width="1.56345" stroke-linecap="square"/>
<path d="M10.0039 20.4074L12.9688 3.59277" stroke="#3C2769" stroke-width="1.56345" stroke-linecap="square"/>
<path d="M10.6094 13.5201L12.3648 10.4797" stroke="#3C2769" stroke-width="1.56345" stroke-linecap="square"/>
<path d="M8.8457 15.1486L14.1296 8.85156" stroke="#3C2769" stroke-width="1.56345" stroke-linecap="square"/>
<path d="M8.65039 14.3806L14.3247 9.61938" stroke="#3C2769" stroke-width="1.56345" stroke-linecap="square"/>
<path d="M2.50586 17.1852L20.4682 6.8147" stroke="#3C2769" stroke-width="1.56345" stroke-linecap="square"/>
<path d="M1.96191 13.6795L21.0125 10.3203" stroke="#3C2769" stroke-width="1.56345" stroke-linecap="square"/>
<path d="M4.84766 12H18.1266" stroke="#3C2769" stroke-width="1.56345" stroke-linecap="square"/>
<path d="M1.70508 6.35254L21.268 17.6472" stroke="#3C2769" stroke-width="1.56345" stroke-linecap="square"/>
<path d="M8.76367 9.7146L14.2109 14.2853" stroke="#3C2769" stroke-width="1.56345" stroke-linecap="square"/>
<path d="M10.1562 10.4138L12.8179 13.5859" stroke="#3C2769" stroke-width="1.56345" stroke-linecap="square"/>
<path d="M7.18652 4.55127L15.7877 19.4489" stroke="#3C2769" stroke-width="1.56345" stroke-linecap="square"/>
<path d="M11.4873 1.92163V22.0785" stroke="#3C2769" stroke-width="1.56345" stroke-linecap="square"/>
<path d="M12.0078 10.5686L10.9658 13.4315" stroke="#3C2769" stroke-width="1.56345" stroke-linecap="square"/>
<path d="M21.2148 6.38354L1.75916 17.6162" stroke="#3C2769" stroke-width="1.56345" stroke-linecap="square"/>
<path d="M15.2129 12H7.76141" stroke="#3C2769" stroke-width="1.56345" stroke-linecap="square"/>
<path d="M32 17.0918H40.3851V14.8084H34.7694V3.99292H32V17.0918Z" fill="#3C2769"/>
<path d="M46.0657 17.2836C49.0462 17.2836 50.9011 15.2433 50.9011 12.2181C50.9011 9.17356 49.0462 7.13965 46.0657 7.13965C43.0854 7.13965 41.2305 9.17356 41.2305 12.2181C41.2305 15.2433 43.0854 17.2836 46.0657 17.2836ZM46.0784 15.173C44.7033 15.173 43.9999 13.913 43.9999 12.1989C43.9999 10.4848 44.7033 9.21834 46.0784 9.21834C47.428 9.21834 48.1317 10.4848 48.1317 12.1989C48.1317 13.913 47.428 15.173 46.0784 15.173Z" fill="#3C2769"/>
<path d="M56.558 20.9805C59.3659 20.9805 61.3614 19.7013 61.3614 17.1877V7.26758H58.656V8.91773H58.5537C58.189 8.11825 57.3895 7.13965 55.7457 7.13965C53.5904 7.13965 51.7676 8.8154 51.7676 12.1605C51.7676 15.4288 53.5392 16.951 55.7523 16.951C57.3192 16.951 58.1955 16.1643 58.5537 15.3521H58.6688V17.1493C58.6688 18.4989 57.8053 19.0233 56.622 19.0233C55.4196 19.0233 54.8119 18.4989 54.588 17.904L52.0683 18.243C52.3945 19.7908 53.9101 20.9805 56.558 20.9805ZM56.6158 14.9043C55.279 14.9043 54.5498 13.8426 54.5498 12.1477C54.5498 10.4784 55.2662 9.30787 56.6158 9.30787C57.9396 9.30787 58.6815 10.4272 58.6815 12.1477C58.6815 13.881 57.9268 14.9043 56.6158 14.9043Z" fill="#3C2769"/>
<path d="M67.4289 17.2836C70.4095 17.2836 72.2644 15.2433 72.2644 12.2181C72.2644 9.17356 70.4095 7.13965 67.4289 7.13965C64.4484 7.13965 62.5938 9.17356 62.5938 12.2181C62.5938 15.2433 64.4484 17.2836 67.4289 17.2836ZM67.4417 15.173C66.0666 15.173 65.3632 13.913 65.3632 12.1989C65.3632 10.4848 66.0666 9.21834 67.4417 9.21834C68.7913 9.21834 69.495 10.4848 69.495 12.1989C69.495 13.913 68.7913 15.173 67.4417 15.173Z" fill="#3C2769"/>
<path d="M73.4949 17.0918H76.2195V7.26768H73.4949V17.0918ZM74.8637 6.00128C75.676 6.00128 76.3411 5.38088 76.3411 4.61977C76.3411 3.86503 75.676 3.24463 74.8637 3.24463C74.0577 3.24463 73.3926 3.86503 73.3926 4.61977C73.3926 5.38088 74.0577 6.00128 74.8637 6.00128Z" fill="#3C2769"/>
<path d="M77.8623 20.7758H80.587V15.5183H80.6703C81.0475 16.337 81.8725 17.2516 83.4587 17.2516C85.6973 17.2516 87.4434 15.48 87.4434 12.1925C87.4434 8.8154 85.6205 7.13965 83.4652 7.13965C81.8215 7.13965 81.0347 8.11825 80.6703 8.91773H80.5487V7.26758H77.8623V20.7758ZM80.5294 12.1797C80.5294 10.4272 81.2714 9.30787 82.5954 9.30787C83.945 9.30787 84.6612 10.4784 84.6612 12.1797C84.6612 13.8938 83.932 15.0834 82.5954 15.0834C81.2841 15.0834 80.5294 13.9322 80.5294 12.1797Z" fill="#3C2769"/>
<path d="M96.8932 10.069C96.65 8.25896 95.1919 7.13965 92.7101 7.13965C90.1966 7.13965 88.5401 8.30371 88.5463 10.1969C88.5401 11.668 89.4674 12.621 91.3863 13.0047L93.0876 13.3437C93.9446 13.5164 94.3349 13.8298 94.3476 14.3223C94.3349 14.9043 93.7015 15.3201 92.7487 15.3201C91.7763 15.3201 91.1304 14.9043 90.9641 14.1049L88.2842 14.2456C88.5401 16.126 90.1391 17.2836 92.7421 17.2836C95.2877 17.2836 97.1106 15.9853 97.1171 14.0473C97.1106 12.6274 96.1832 11.7767 94.2771 11.3866L92.499 11.0284C91.5844 10.8301 91.2455 10.5167 91.252 10.0434C91.2455 9.45499 91.9106 9.07123 92.7549 9.07123C93.7015 9.07123 94.2643 9.58929 94.3987 10.2225L96.8932 10.069Z" fill="#3C2769"/>
<path d="M104.593 12.9088C104.6 14.2264 103.698 14.9171 102.719 14.9171C101.689 14.9171 101.024 14.1944 101.018 13.0367V7.26758H98.293V13.5228C98.2995 15.8189 99.6425 17.2197 101.619 17.2197C103.096 17.2197 104.158 16.4585 104.6 15.3073H104.702V17.0917H107.318V7.26758H104.593V12.9088Z" fill="#3C2769"/>
<path d="M108.957 17.0918H111.682V11.1947C111.682 10.1074 112.373 9.38464 113.281 9.38464C114.176 9.38464 114.778 9.99864 114.778 10.9644V17.0918H117.419V11.0924C117.419 10.0754 118.001 9.38464 118.992 9.38464C119.862 9.38464 120.515 9.9283 120.515 11.022V17.0918H123.233V10.4848C123.233 8.35489 121.966 7.13965 120.137 7.13965C118.698 7.13965 117.579 7.8752 117.176 9.00088H117.073C116.76 7.86239 115.756 7.13965 114.407 7.13965C113.083 7.13965 112.078 7.8432 111.669 9.00088H111.554V7.26758H108.957V17.0918Z" fill="#3C2769"/>
</svg>
